<?xml version="1.0" encoding="utf-8" standalone="yes"?>
<!DOCTYPE svg PUBLIC "-//W3C//DTD SVG 1.1//EN" "http://www.w3.org/Graphics/SVG/1.1/DTD/svg11.dtd">
<svg width="732" height="1188" viewBox="0 0 732 1188" style="fill:none;stroke:none;fill-rule:evenodd;clip-rule:evenodd;stroke-linecap:round;stroke-linejoin:round;stroke-miterlimit:1.5;" version="1.1" xmlns="http://www.w3.org/2000/svg" xmlns:xlink="http://www.w3.org/1999/xlink"><style class="text-font-style fontImports" data-font-family="Roboto">@import url('https://fonts.googleapis.com/css2?family=Roboto:wght@400;700&amp;display=block');</style><g id="items" style="isolation: isolate"><g id="blend" style="mix-blend-mode: normal"><g id="g-root-cp_7_stairs-7_1hjfwdm9hlvya-fill" data-item-order="-746916" transform="translate(253.0001220703125, 122)"><g id="cp_7_stairs-7_1hjfwdm9hlvya-fill" stroke="none" fill="#f5f5f5"><g><path d="M 76.999894 112L 70.999894 118L 9.999994 118L 15.656094 112L 76.999894 112ZM 100.999894 124L 94.999894 130L 70.999894 130L 76.999894 124L 100.999894 124ZM 124.999894 136L 118.999894 142L 94.999894 142L 100.999894 136L 124.999894 136ZM 148.999894 148L 142.999894 154L 118.999894 154L 124.999894 148L 148.999894 148ZM 172.999894 160L 166.999894 166L 142.999894 166L 148.999894 160L 172.999894 160ZM 190.999894 172L 190.999894 178L 166.999894 178L 172.999894 172L 190.999894 172ZM 76.999894 112L 76.999894 124L 70.999894 130L 70.999894 118L 76.999894 112ZM 100.999894 124L 100.999894 136L 94.999894 142L 94.999894 130L 100.999894 124ZM 124.999894 136L 124.999894 148L 118.999894 154L 118.999894 142L 124.999894 136ZM 148.999894 148L 148.999894 160L 142.999894 166L 142.999894 154L 148.999894 148ZM 172.999894 160L 172.999894 172L 166.999894 178L 166.999894 166L 172.999894 160Z"></path></g></g><g id="cp_7_stairs-7_1hjfwdm9hlvya-fill" stroke="none" fill="#f5f5f5"><g><path d="M 238.999859 142L 190.999859 142L 190.999859 172L 172.999859 172L 172.999859 160L 148.999859 160L 148.999859 148L 124.999859 148L 124.999859 136.5L 100.999859 136L 100.999859 124L 76.999859 124L 76.999859 112L 15.676259 112L 112.999859 10L 238.999859 142Z"></path></g></g></g><g id="g-root-cp_7_g-7_18nsw4q9hlwr1-fill" data-item-order="-746910" transform="translate(140, 224)"><g id="cp_7_g-7_18nsw4q9hlwr1-fill" stroke="none" fill="#ffeceb"><g><path d="M 22 16C 22 19.3137 19.3137 22 16 22C 12.6863 22 10 19.3137 10 16C 10 12.6863 12.6863 10 16 10C 19.3137 10 22 12.6863 22 16Z"></path></g></g><g id="cp_7_g-7_18nsw4q9hlwr1-fill" stroke="none" fill="#ffeceb"><g><path d="M 148 88L 304 88L 304 112L 148 112ZM 304 118L 274 118L 268 124L 268 130L 250 130L 244 136L 244 142L 226 142L 220 148L 220 154L 202 154L 196 160L 196 166L 178 166L 172 172L 172 178L 154 178L 148 184L 148 112L 304 112L 304 118ZM 124 16L 184 16L 184 28L 208 28L 208 40L 232 40L 232 52L 256 52L 256 64L 280 64L 280 76L 304 76L 304 88L 148 88L 148 40L 100 40L 124 16Z"></path></g></g></g><g id="g-root-cp_6_stairs-6_13ym9pm9hn8y0-fill" data-item-order="-746876" transform="translate(278, 332)"><g id="cp_6_stairs-6_13ym9pm9hn8y0-fill" stroke="none" fill="#f5f5f5"><g><path d="M 166 10L 166 16L 130 16L 136 10L 166 10ZM 130 22L 130 28L 106 28L 112 22L 130 22ZM 34 70L 34 76L 10 76L 16 70L 34 70ZM 58 58L 58 64L 34 64L 40 58L 58 58ZM 82 46L 82 52L 58 52L 64 46L 82 46ZM 106 34L 106 40L 82 40L 88 34L 106 34Z"></path></g></g></g><g id="g-root-cp_6_g-6_13ym9pm9hn8y2-fill" data-item-order="-746872" transform="translate(278, 332)"><g id="cp_6_g-6_13ym9pm9hn8y2-fill" stroke="none" fill="#fff2e5"><g><path d="M 304 16C 304 19.3137 301.3137 22 298 22C 294.6863 22 292 19.3137 292 16C 292 12.6863 294.6863 10 298 10C 301.3137 10 304 12.6863 304 16Z"></path></g></g><g id="cp_6_g-6_13ym9pm9hn8y2-fill" stroke="none" fill="#fff2e5"><g><path d="M 166 16L 130 16L 130 28L 106 28L 106 40L 82 40L 82 52L 58 52L 58 64L 34 64L 34 76L 10 76L 10 88L 166 88L 166 16ZM 10 88L 166 88L 166 112L 10 112ZM 166 178L 148 178L 148 166L 124 166L 124 154L 100 154L 100 142L 76 142L 76 130L 52 130L 52 118L 10 118L 10 112L 166 112L 166 178Z"></path></g></g></g><g id="g-root-cp_5_stairs-5_zisrl69hn9qd-fill" data-item-order="-746840" transform="translate(278, 440)"><g id="cp_5_stairs-5_zisrl69hn9qd-fill" stroke="none" fill="#f5f5f5"><g><path d="M 52 10L 46 16L 10 16L 10 10L 52 10ZM 76 22L 70 28L 46 28L 52 22L 76 22ZM 100 34L 94 40L 70 40L 76 34L 100 34ZM 124 46L 118 52L 94 52L 100 46L 124 46ZM 148 58L 142 64L 118 64L 124 58L 148 58ZM 166 70L 166 76L 142 76L 148 70L 166 70ZM 52 10L 52 22L 46 28L 46 16L 52 10ZM 76 22L 76 34L 70 40L 70 28L 76 22ZM 100 34L 100 46L 94 52L 94 40L 100 34ZM 124 46L 124 58L 118 64L 118 52L 124 46ZM 148 58L 148 70L 142 76L 142 64L 148 58Z"></path></g></g></g><g id="g-root-cp_5_g-5_qn5rca9hnaj3-fill" data-item-order="-746836" transform="translate(140, 440)"><g id="cp_5_g-5_qn5rca9hnaj3-fill" stroke="none" fill="#fffbda"><g><path d="M 22 16C 22 19.3137 19.3137 22 16 22C 12.6863 22 10 19.3137 10 16C 10 12.6863 12.6863 10 16 10C 19.3137 10 22 12.6863 22 16Z"></path></g></g><g id="cp_5_g-5_qn5rca9hnaj3-fill" stroke="none" fill="#fffbda"><g><path d="M 148 88L 304 88L 304 136L 148 136ZM 304 142L 274 142L 268 148L 268 154L 250 154L 244 160L 244 166L 226 166L 220 172L 220 178L 202 178L 196 184L 196 190L 178 190L 172 196L 172 202L 154 202L 148 208L 148 136L 304 136L 304 142ZM 148 16L 184 16L 184 28L 208 28L 208 40L 232 40L 232 52L 256 52L 256 64L 280 64L 280 76L 304 76L 304 88L 148 88L 148 16Z"></path></g></g></g><g id="g-root-cp_4_g-4_v2z9gq9hnaiq-fill" data-item-order="-746804" transform="translate(278, 572)"><g id="cp_4_g-4_v2z9gq9hnaiq-fill" stroke="none" fill="#f5f5f5"><g><path d="M 166 10L 166 16L 130 16L 136 10L 166 10ZM 130 22L 130 28L 106 28L 112 22L 130 22ZM 34 70L 34 76L 10 76L 16 70L 34 70ZM 58 58L 58 64L 34 64L 40 58L 58 58ZM 82 46L 82 52L 58 52L 64 46L 82 46ZM 106 34L 106 40L 82 40L 88 34L 106 34Z"></path></g></g></g><g id="g-root-cp_4_g-4_1_m7c97u9hnbbg-fill" data-item-order="-746800" transform="translate(278, 572)"><g id="cp_4_g-4_1_m7c97u9hnbbg-fill" stroke="none" fill="#f4ffdc"><g><path d="M 304 16C 304 19.3137 301.3137 22 298 22C 294.6863 22 292 19.3137 292 16C 292 12.6863 294.6863 10 298 10C 301.3137 10 304 12.6863 304 16Z"></path></g></g><g id="cp_4_g-4_1_m7c97u9hnbbg-fill" stroke="none" fill="#f4ffdc"><g><path d="M 166 16L 130 16L 130 28L 106 28L 106 40L 82 40L 82 52L 58 52L 58 64L 34 64L 34 76L 10 76L 10 88L 166 88L 166 16ZM 10 88L 166 88L 166 160L 10 160ZM 166 226L 148 226L 148 214L 124 214L 124 202L 100 202L 100 190L 76 190L 76 178L 52 178L 52 166L 10 166L 10 160L 166 160L 166 226Z"></path></g></g></g><g id="g-root-cp_3_stairs-3_m7c97u9hnbbj-fill" data-item-order="-746768" transform="translate(278, 728)"><g id="cp_3_stairs-3_m7c97u9hnbbj-fill" stroke="none" fill="#f5f5f5"><g><path d="M 52 10L 46 16L 10 16L 10 10L 52 10ZM 76 22L 70 28L 46 28L 52 22L 76 22ZM 100 34L 94 40L 70 40L 76 34L 100 34ZM 124 46L 118 52L 94 52L 100 46L 124 46ZM 148 58L 142 64L 118 64L 124 58L 148 58ZM 166 70L 166 76L 142 76L 148 70L 166 70ZM 52 10L 52 22L 46 28L 46 16L 52 10ZM 76 22L 76 34L 70 40L 70 28L 76 22ZM 100 34L 100 46L 94 52L 94 40L 100 34ZM 124 46L 124 58L 118 64L 118 52L 124 46ZM 148 58L 148 70L 142 76L 142 64L 148 58Z"></path></g></g></g><g id="g-root-cp_3_g-3_hs586i9hn8y1-fill" data-item-order="-746764" transform="translate(140, 728)"><g id="cp_3_g-3_hs586i9hn8y1-fill" stroke="none" fill="#e3fff2"><g><path d="M 22 16C 22 19.3137 19.3137 22 16 22C 12.6863 22 10 19.3137 10 16C 10 12.6863 12.6863 10 16 10C 19.3137 10 22 12.6863 22 16Z"></path></g></g><g id="cp_3_g-3_hs586i9hn8y1-fill" stroke="none" fill="#e3fff2"><g><path d="M 148 88L 304 88L 304 112L 148 112ZM 304 118L 274 118L 268 124L 268 130L 250 130L 244 136L 244 142L 226 142L 220 148L 220 154L 202 154L 196 160L 196 166L 178 166L 172 172L 172 178L 154 178L 148 184L 148 112L 304 112L 304 118ZM 148 16L 184 16L 184 28L 208 28L 208 40L 232 40L 232 52L 256 52L 256 64L 280 64L 280 76L 304 76L 304 88L 148 88L 148 16Z"></path></g></g></g><g id="g-root-cp_2_stairs-2_hs586i9hn8y4-fill" data-item-order="-746732" transform="translate(278, 836)"><g id="cp_2_stairs-2_hs586i9hn8y4-fill" stroke="none" fill="#f5f5f5"><g><path d="M 166 10L 166 16L 130 16L 136 10L 166 10ZM 130 22L 130 28L 106 28L 112 22L 130 22ZM 34 70L 34 76L 10 76L 16 70L 34 70ZM 58 58L 58 64L 34 64L 40 58L 58 58ZM 82 46L 82 52L 58 52L 64 46L 82 46ZM 106 34L 106 40L 82 40L 88 34L 106 34Z"></path></g></g></g><g id="g-root-cp_2_g-2_dcbq229hn9qe-fill" data-item-order="-746728" transform="translate(278, 836)"><g id="cp_2_g-2_dcbq229hn9qe-fill" stroke="none" fill="#edf4ff"><g><path d="M 304 16C 304 19.3137 301.3137 22 298 22C 294.6863 22 292 19.3137 292 16C 292 12.6863 294.6863 10 298 10C 301.3137 10 304 12.6863 304 16Z"></path></g></g><g id="cp_2_g-2_dcbq229hn9qe-fill" stroke="none" fill="#edf4ff"><g><path d="M 166 16L 130 16L 130 28L 106 28L 106 40L 82 40L 82 52L 58 52L 58 64L 34 64L 34 76L 10 76L 10 88L 166 88L 166 16ZM 10 88L 166 88L 166 136L 10 136ZM 166 202L 148 202L 148 190L 124 190L 124 178L 100 178L 100 166L 76 166L 76 154L 52 154L 52 142L 10 142L 10 136L 166 136L 166 202Z"></path></g></g></g><g id="g-root-cp_1_stairs-1_8wi7xm9hnaip-fill" data-item-order="-746696" transform="translate(278, 968)"><g id="cp_1_stairs-1_8wi7xm9hnaip-fill" stroke="none" fill="#f5f5f5"><g><path d="M 52 10L 46 16L 10 16L 10 10L 52 10ZM 76 22L 70 28L 46 28L 52 22L 76 22ZM 100 34L 94 40L 70 40L 76 34L 100 34ZM 124 46L 118 52L 94 52L 100 46L 124 46ZM 148 58L 142 64L 118 64L 124 58L 148 58ZM 166 70L 166 76L 142 76L 148 70L 166 70ZM 52 10L 52 22L 46 28L 46 16L 52 10ZM 76 22L 76 34L 70 40L 70 28L 76 22ZM 100 34L 100 46L 94 52L 94 40L 100 34ZM 124 46L 124 58L 118 64L 118 52L 124 46ZM 148 58L 148 70L 142 76L 142 64L 148 58Z"></path></g></g></g><g id="g-root-cp_1_g-1_8wi7xm9hnair-fill" data-item-order="-746692" transform="translate(140, 968)"><g id="cp_1_g-1_8wi7xm9hnair-fill" stroke="none" fill="#f5f5f5"><g><path d="M 22 16C 22 19.3137 19.3137 22 16 22C 12.6863 22 10 19.3137 10 16C 10 12.6863 12.6863 10 16 10C 19.3137 10 22 12.6863 22 16Z"></path></g></g><g id="cp_1_g-1_8wi7xm9hnair-fill" stroke="none" fill="#f5f5f5"><g><path d="M 148 16L 184 16L 184 28L 208 28L 208 40L 232 40L 232 52L 256 52L 256 64L 280 64L 280 76L 304 76L 304 88L 148 88L 148 16ZM 148 88L 304 88L 304 136L 148 136ZM 148 136L 304 136L 304 160L 148 160Z"></path></g></g></g><g id="g-root-tx_stimmend_3zl4a9hopvp-fill" data-item-order="0" transform="translate(110, 482)"><g id="tx_stimmend_3zl4a9hopvp-fill" stroke="none" fill="#e0cb15"><g><text style="font: bold 20px Roboto, sans-serif; white-space: pre;" font-weight="bold" font-size="20px" font-family="Roboto, sans-serif"><tspan x="12.61" y="34" dominant-baseline="ideographic">Stimmen der </tspan><tspan x="50.75" y="58" dominant-baseline="ideographic">Ordnung</tspan></text></g></g></g><g id="g-root-ic_arro_1q87ooa9hq2gy-fill" data-item-order="0" transform="translate(482, 518)"></g><g id="g-root-tx_lehrerdi_1lu9lt69hoo3q-fill" data-item-order="0" transform="translate(62, 542)"><g id="tx_lehrerdi_1lu9lt69hoo3q-fill" stroke="none" fill="#484848"><g><text style="font: 15px Roboto, sans-serif; white-space: pre;" font-size="15px" font-family="Roboto, sans-serif"><tspan x="21.08" y="28" dominant-baseline="ideographic">Lehrer, die Sprache und </tspan><tspan x="58.11" y="46" dominant-baseline="ideographic">Logik formatieren</tspan></text></g></g></g><g id="g-root-tx_stratege_me7h629hnair-fill" data-item-order="0" transform="translate(482, 410)"><g id="tx_stratege_me7h629hnair-fill" stroke="none" fill="#484848"><g><text style="font: 15px Roboto, sans-serif; white-space: pre;" font-size="15px" font-family="Roboto, sans-serif"><tspan x="12" y="28" dominant-baseline="ideographic">Strategen und Visionäre, die </tspan><tspan x="12" y="46" dominant-baseline="ideographic">den Willen der Quelle hüten</tspan></text></g></g></g><g id="g-root-tx_kreisder_qu0zai9hn9qi-fill" data-item-order="0" transform="translate(482, 374)"><g id="tx_kreisder_qu0zai9hn9qi-fill" stroke="none" fill="#de8431"><g><text style="font: bold 20px Roboto, sans-serif; white-space: pre;" font-weight="bold" font-size="20px" font-family="Roboto, sans-serif"><tspan x="12" y="34" dominant-baseline="ideographic">Kreis der Flamme</tspan></text></g></g></g><g id="g-root-tx_sulendes_4hxnze9hq48w-fill" data-item-order="0" transform="translate(482, 614)"><g id="tx_sulendes_4hxnze9hq48w-fill" stroke="none" fill="#92bd39"><g><text style="font: bold 20px Roboto, sans-serif; white-space: pre;" font-weight="bold" font-size="20px" font-family="Roboto, sans-serif"><tspan x="12" y="34" dominant-baseline="ideographic">Säulen des </tspan><tspan x="12" y="58" dominant-baseline="ideographic">Wachstums</tspan></text></g></g></g><g id="g-root-ic_stai_qn5rca9hrg92-fill" data-item-order="0" transform="translate(182, 674)"></g><g id="g-root-tx_lokalefh_1uo16sq9hq1op-fill" data-item-order="0" transform="translate(482, 674)"><g id="tx_lokalefh_1uo16sq9hq1op-fill" stroke="none" fill="#484848"><g><text style="font: 15px Roboto, sans-serif; white-space: pre;" font-size="15px" font-family="Roboto, sans-serif"><tspan x="12" y="31" dominant-baseline="ideographic">Lokale Führer, die </tspan><tspan x="12" y="49" dominant-baseline="ideographic">Gehorsam und Ressourcen </tspan><tspan x="12" y="67" dominant-baseline="ideographic">verwalten</tspan></text></g></g></g><g id="g-root-ic_para_1cymlka9hoowf-fill" data-item-order="0" transform="translate(182, 386)"></g><g id="g-root-tx_gttliche_1q6yqi29hn9j4-fill" data-item-order="0" transform="translate(86, 302)"><g id="tx_gttliche_1q6yqi29hn9j4-fill" stroke="none" fill="#484848"><g><text style="font: 15px Roboto, sans-serif; white-space: pre;" font-size="15px" font-family="Roboto, sans-serif"><tspan x="13.28" y="28" dominant-baseline="ideographic">Göttliche Inkarnation </tspan><tspan x="22.17" y="46" dominant-baseline="ideographic">jenseits aller Ränge</tspan></text></g></g></g><g id="g-root-tx_feuertrg_18nsw4q9hq2h8-fill" data-item-order="0" transform="translate(110, 770)"><g id="tx_feuertrg_18nsw4q9hq2h8-fill" stroke="none" fill="#3cc583"><g><text style="font: bold 20px Roboto, sans-serif; white-space: pre;" font-weight="bold" font-size="20px" font-family="Roboto, sans-serif"><tspan x="22.58" y="34" dominant-baseline="ideographic">Feuerträger</tspan></text></g></g></g><g id="g-root-ic_1_1d1qyzu9hrguh-fill" data-item-order="0" transform="translate(482, 782)"></g><g id="g-root-tx_mentoren_vccdre9hq425-fill" data-item-order="0" transform="translate(50, 806)"><g id="tx_mentoren_vccdre9hq425-fill" stroke="none" fill="#484848"><g><text style="font: 15px Roboto, sans-serif; white-space: pre;" font-size="15px" font-family="Roboto, sans-serif"><tspan x="31.75" y="28" dominant-baseline="ideographic">Mentoren, die Potenzial </tspan><tspan x="16.59" y="46" dominant-baseline="ideographic">erkennen und reformieren</tspan></text></g></g></g><g id="g-root-ic_circ_dikgx69hnbbg-fill" data-item-order="0" transform="translate(482, 278)"></g><g id="g-root-tx_lichttrg_1ums8mi9hn8qv-fill" data-item-order="0" transform="translate(122, 266)"><g id="tx_lichttrg_1ums8mi9hn8qv-fill" stroke="none" fill="#e55753"><g><text style="font: bold 20px Roboto, sans-serif; white-space: pre;" font-weight="bold" font-size="20px" font-family="Roboto, sans-serif"><tspan x="17.47" y="34" dominant-baseline="ideographic">Lichtträger</tspan></text></g></g></g><g id="g-root-tx_aufstreb_1qcl0a29hrifb-fill" data-item-order="0" transform="translate(482, 878)"><g id="tx_aufstreb_1qcl0a29hrifb-fill" stroke="none" fill="#4e88e7"><g><text style="font: bold 20px Roboto, sans-serif; white-space: pre;" font-weight="bold" font-size="20px" font-family="Roboto, sans-serif"><tspan x="12" y="34" dominant-baseline="ideographic">Aufstrebende </tspan><tspan x="12" y="58" dominant-baseline="ideographic">Funken</tspan></text></g></g></g><g id="g-root-ic_spac_1uonnvu9hsxsc-fill" data-item-order="0" transform="translate(182, 914)"></g><g id="g-root-tx_diszipli_1lwri5m9hrj7k-fill" data-item-order="0" transform="translate(482, 938)"><g id="tx_diszipli_1lwri5m9hrj7k-fill" stroke="none" fill="#484848"><g><text style="font: 15px Roboto, sans-serif; white-space: pre;" font-size="15px" font-family="Roboto, sans-serif"><tspan x="12" y="28" dominant-baseline="ideographic">Disziplinierte Neulinge, die </tspan><tspan x="12" y="46" dominant-baseline="ideographic">bewertet werden</tspan></text></g></g></g><g id="g-root-ic_aura_1hbbq969hnabt-fill" data-item-order="0" transform="translate(182, 170)"></g><g id="g-root-tx_reisezur_v7oq9hnbbi-fill" data-item-order="0" transform="translate(230, 38)"><g id="tx_reisezur_v7oq9hnbbi-fill" stroke="none" fill="#484848"><g><text style="font: bold 25px Roboto, sans-serif; white-space: pre;" font-weight="bold" font-size="25px" font-family="Roboto, sans-serif"><tspan x="13.05" y="43" dominant-baseline="ideographic">Reise zur Erleuchtung</tspan></text></g></g></g><g id="g-root-tx_ungeform_4j6m5m9hsx6r-fill" data-item-order="0" transform="translate(62, 1046)"><g id="tx_ungeform_4j6m5m9hsx6r-fill" stroke="none" fill="#484848"><g><text style="font: 15px Roboto, sans-serif; white-space: pre;" font-size="15px" font-family="Roboto, sans-serif"><tspan x="19.67" y="31" dominant-baseline="ideographic">Ungeformte Geister, die </tspan><tspan x="13.39" y="49" dominant-baseline="ideographic">beobachtet und getestet </tspan><tspan x="127.13" y="67" dominant-baseline="ideographic">werden</tspan></text></g></g></g><g id="g-root-tx_suchende_hun4iy9hsvlu-fill" data-item-order="0" transform="translate(134, 1010)"><g id="tx_suchende_hun4iy9hsvlu-fill" stroke="none" fill="#969696"><g><text style="font: bold 20px Roboto, sans-serif; white-space: pre;" font-weight="bold" font-size="20px" font-family="Roboto, sans-serif"><tspan x="14.78" y="34" dominant-baseline="ideographic">Suchende</tspan></text></g></g></g><g id="g-root-cp_7_stairs-7_1hjfwdm9hlvya-stroke" data-item-order="-746916" transform="translate(253.0001220703125, 122)"><g id="cp_7_stairs-7_1hjfwdm9hlvya-stroke" fill="none" stroke-linecap="round" stroke-linejoin="round" stroke-miterlimit="4" stroke="#969696" stroke-width="2"><g><path d="M 76.999894 112L 70.999894 118L 9.999994 118L 15.656094 112L 76.999894 112ZM 100.999894 124L 94.999894 130L 70.999894 130L 76.999894 124L 100.999894 124ZM 124.999894 136L 118.999894 142L 94.999894 142L 100.999894 136L 124.999894 136ZM 148.999894 148L 142.999894 154L 118.999894 154L 124.999894 148L 148.999894 148ZM 172.999894 160L 166.999894 166L 142.999894 166L 148.999894 160L 172.999894 160ZM 190.999894 172L 190.999894 178L 166.999894 178L 172.999894 172L 190.999894 172ZM 76.999894 112L 76.999894 124L 70.999894 130L 70.999894 118L 76.999894 112ZM 100.999894 124L 100.999894 136L 94.999894 142L 94.999894 130L 100.999894 124ZM 124.999894 136L 124.999894 148L 118.999894 154L 118.999894 142L 124.999894 136ZM 148.999894 148L 148.999894 160L 142.999894 166L 142.999894 154L 148.999894 148ZM 172.999894 160L 172.999894 172L 166.999894 178L 166.999894 166L 172.999894 160Z"></path></g></g><g id="cp_7_stairs-7_1hjfwdm9hlvya-stroke" fill="none" stroke-linecap="round" stroke-linejoin="round" stroke-miterlimit="4" stroke="#969696" stroke-width="2"><g><path d="M 238.999859 142L 190.999859 142L 190.999859 172L 172.999859 172L 172.999859 160L 148.999859 160L 148.999859 148L 124.999859 148L 124.999859 136.5L 100.999859 136L 100.999859 124L 76.999859 124L 76.999859 112L 15.676259 112L 112.999859 10L 238.999859 142Z"></path></g></g></g><g id="g-root-cp_7_g-7_18nsw4q9hlwr1-stroke" data-item-order="-746910" transform="translate(140, 224)"><g id="cp_7_g-7_18nsw4q9hlwr1-stroke" fill="none" stroke-linecap="round" stroke-linejoin="round" stroke-miterlimit="4" stroke="#e55753" stroke-width="2"><g><path d="M 22 16C 22 19.3137 19.3137 22 16 22C 12.6863 22 10 19.3137 10 16C 10 12.6863 12.6863 10 16 10C 19.3137 10 22 12.6863 22 16ZM 148 16L 22 16"></path></g></g><g id="cp_7_g-7_18nsw4q9hlwr1-stroke" fill="none" stroke-linecap="round" stroke-linejoin="round" stroke-miterlimit="4" stroke="#e55753" stroke-width="2"><g><path d="M 304 88L 304 76L 280 76L 280 64L 256 64L 256 52L 232 52L 232 40L 208 40L 208 28L 184 28L 184 16L 123 16L 100 40L 148 40L 148 88M 148 88L 148 112M 304 88L 304 112M 304 112L 304 118L 274 118L 268 124L 268 130L 250 130L 244 136L 244 142L 226 142L 220 148L 220 154L 202 154L 196 160L 196 166L 178 166L 172 172L 172 178L 154 178L 148 184L 148 112"></path></g></g></g><g id="g-root-cp_6_stairs-6_13ym9pm9hn8y0-stroke" data-item-order="-746876" transform="translate(278, 332)"><g id="cp_6_stairs-6_13ym9pm9hn8y0-stroke" fill="none" stroke-linecap="round" stroke-linejoin="round" stroke-miterlimit="4" stroke="#969696" stroke-width="2"><g><path d="M 166 10L 166 16L 130 16L 136 10L 166 10ZM 130 22L 130 28L 106 28L 112 22L 130 22ZM 34 70L 34 76L 10 76L 16 70L 34 70ZM 58 58L 58 64L 34 64L 40 58L 58 58ZM 82 46L 82 52L 58 52L 64 46L 82 46ZM 106 34L 106 40L 82 40L 88 34L 106 34Z"></path></g></g></g><g id="g-root-cp_6_g-6_13ym9pm9hn8y2-stroke" data-item-order="-746872" transform="translate(278, 332)"><g id="cp_6_g-6_13ym9pm9hn8y2-stroke" fill="none" stroke-linecap="round" stroke-linejoin="round" stroke-miterlimit="4" stroke="#de8431" stroke-width="2"><g><path d="M 304 16C 304 19.3137 301.3137 22 298 22C 294.6863 22 292 19.3137 292 16C 292 12.6863 294.6863 10 298 10C 301.3137 10 304 12.6863 304 16ZM 292 16L 166 16"></path></g></g><g id="cp_6_g-6_13ym9pm9hn8y2-stroke" fill="none" stroke-linecap="round" stroke-linejoin="round" stroke-miterlimit="4" stroke="#de8431" stroke-width="2"><g><path d="M 10 112L 10 118L 52 118L 52 130L 76 130L 76 142L 100 142L 100 154L 124 154L 124 166L 148 166L 148 178L 166 178L 166 112M 10 88L 10 112M 166 88L 166 112M 10 88L 10 76L 34 76L 34 64L 58 64L 58 52L 82 52L 82 40L 106 40L 106 28L 130 28L 130 16L 166 16L 166 88"></path></g></g></g><g id="g-root-cp_5_stairs-5_zisrl69hn9qd-stroke" data-item-order="-746840" transform="translate(278, 440)"><g id="cp_5_stairs-5_zisrl69hn9qd-stroke" fill="none" stroke-linecap="round" stroke-linejoin="round" stroke-miterlimit="4" stroke="#969696" stroke-width="2"><g><path d="M 52 10L 46 16L 10 16L 10 10L 52 10ZM 76 22L 70 28L 46 28L 52 22L 76 22ZM 100 34L 94 40L 70 40L 76 34L 100 34ZM 124 46L 118 52L 94 52L 100 46L 124 46ZM 148 58L 142 64L 118 64L 124 58L 148 58ZM 166 70L 166 76L 142 76L 148 70L 166 70ZM 52 10L 52 22L 46 28L 46 16L 52 10ZM 76 22L 76 34L 70 40L 70 28L 76 22ZM 100 34L 100 46L 94 52L 94 40L 100 34ZM 124 46L 124 58L 118 64L 118 52L 124 46ZM 148 58L 148 70L 142 76L 142 64L 148 58Z"></path></g></g></g><g id="g-root-cp_5_g-5_qn5rca9hnaj3-stroke" data-item-order="-746836" transform="translate(140, 440)"><g id="cp_5_g-5_qn5rca9hnaj3-stroke" fill="none" stroke-linecap="round" stroke-linejoin="round" stroke-miterlimit="4" stroke="#e0cb15" stroke-width="2"><g><path d="M 22 16C 22 19.3137 19.3137 22 16 22C 12.6863 22 10 19.3137 10 16C 10 12.6863 12.6863 10 16 10C 19.3137 10 22 12.6863 22 16ZM 148 16L 22 16"></path></g></g><g id="cp_5_g-5_qn5rca9hnaj3-stroke" fill="none" stroke-linecap="round" stroke-linejoin="round" stroke-miterlimit="4" stroke="#e0cb15" stroke-width="2"><g><path d="M 304 88L 304 76L 280 76L 280 64L 256 64L 256 52L 232 52L 232 40L 208 40L 208 28L 184 28L 184 16L 148 16L 148 88M 148 88L 148 136M 304 88L 304 136M 304 136L 304 142L 274 142L 268 148L 268 154L 250 154L 244 160L 244 166L 226 166L 220 172L 220 178L 202 178L 196 184L 196 190L 178 190L 172 196L 172 202L 154 202L 148 208L 148 136"></path></g></g></g><g id="g-root-cp_4_g-4_v2z9gq9hnaiq-stroke" data-item-order="-746804" transform="translate(278, 572)"><g id="cp_4_g-4_v2z9gq9hnaiq-stroke" fill="none" stroke-linecap="round" stroke-linejoin="round" stroke-miterlimit="4" stroke="#969696" stroke-width="2"><g><path d="M 166 10L 166 16L 130 16L 136 10L 166 10ZM 130 22L 130 28L 106 28L 112 22L 130 22ZM 34 70L 34 76L 10 76L 16 70L 34 70ZM 58 58L 58 64L 34 64L 40 58L 58 58ZM 82 46L 82 52L 58 52L 64 46L 82 46ZM 106 34L 106 40L 82 40L 88 34L 106 34Z"></path></g></g></g><g id="g-root-cp_4_g-4_1_m7c97u9hnbbg-stroke" data-item-order="-746800" transform="translate(278, 572)"><g id="cp_4_g-4_1_m7c97u9hnbbg-stroke" fill="none" stroke-linecap="round" stroke-linejoin="round" stroke-miterlimit="4" stroke="#92bd39" stroke-width="2"><g><path d="M 304 16C 304 19.3137 301.3137 22 298 22C 294.6863 22 292 19.3137 292 16C 292 12.6863 294.6863 10 298 10C 301.3137 10 304 12.6863 304 16ZM 292 16L 166 16"></path></g></g><g id="cp_4_g-4_1_m7c97u9hnbbg-stroke" fill="none" stroke-linecap="round" stroke-linejoin="round" stroke-miterlimit="4" stroke="#92bd39" stroke-width="2"><g><path d="M 10 160L 10 166L 52 166L 52 178L 76 178L 76 190L 100 190L 100 202L 124 202L 124 214L 148 214L 148 226L 166 226L 166 160M 10 88L 10 160M 166 88L 166 160M 10 88L 10 76L 34 76L 34 64L 58 64L 58 52L 82 52L 82 40L 106 40L 106 28L 130 28L 130 16L 166 16L 166 88"></path></g></g></g><g id="g-root-cp_3_stairs-3_m7c97u9hnbbj-stroke" data-item-order="-746768" transform="translate(278, 728)"><g id="cp_3_stairs-3_m7c97u9hnbbj-stroke" fill="none" stroke-linecap="round" stroke-linejoin="round" stroke-miterlimit="4" stroke="#969696" stroke-width="2"><g><path d="M 52 10L 46 16L 10 16L 10 10L 52 10ZM 76 22L 70 28L 46 28L 52 22L 76 22ZM 100 34L 94 40L 70 40L 76 34L 100 34ZM 124 46L 118 52L 94 52L 100 46L 124 46ZM 148 58L 142 64L 118 64L 124 58L 148 58ZM 166 70L 166 76L 142 76L 148 70L 166 70ZM 52 10L 52 22L 46 28L 46 16L 52 10ZM 76 22L 76 34L 70 40L 70 28L 76 22ZM 100 34L 100 46L 94 52L 94 40L 100 34ZM 124 46L 124 58L 118 64L 118 52L 124 46ZM 148 58L 148 70L 142 76L 142 64L 148 58Z"></path></g></g></g><g id="g-root-cp_3_g-3_hs586i9hn8y1-stroke" data-item-order="-746764" transform="translate(140, 728)"><g id="cp_3_g-3_hs586i9hn8y1-stroke" fill="none" stroke-linecap="round" stroke-linejoin="round" stroke-miterlimit="4" stroke="#3cc583" stroke-width="2"><g><path d="M 22 16C 22 19.3137 19.3137 22 16 22C 12.6863 22 10 19.3137 10 16C 10 12.6863 12.6863 10 16 10C 19.3137 10 22 12.6863 22 16ZM 148 16L 22 16"></path></g></g><g id="cp_3_g-3_hs586i9hn8y1-stroke" fill="none" stroke-linecap="round" stroke-linejoin="round" stroke-miterlimit="4" stroke="#3cc583" stroke-width="2"><g><path d="M 304 88L 304 76L 280 76L 280 64L 256 64L 256 52L 232 52L 232 40L 208 40L 208 28L 184 28L 184 16L 148 16L 148 88M 148 88L 148 112M 304 88L 304 112M 304 112L 304 118L 274 118L 268 124L 268 130L 250 130L 244 136L 244 142L 226 142L 220 148L 220 154L 202 154L 196 160L 196 166L 178 166L 172 172L 172 178L 154 178L 148 184L 148 112"></path></g></g></g><g id="g-root-cp_2_stairs-2_hs586i9hn8y4-stroke" data-item-order="-746732" transform="translate(278, 836)"><g id="cp_2_stairs-2_hs586i9hn8y4-stroke" fill="none" stroke-linecap="round" stroke-linejoin="round" stroke-miterlimit="4" stroke="#969696" stroke-width="2"><g><path d="M 166 10L 166 16L 130 16L 136 10L 166 10ZM 130 22L 130 28L 106 28L 112 22L 130 22ZM 34 70L 34 76L 10 76L 16 70L 34 70ZM 58 58L 58 64L 34 64L 40 58L 58 58ZM 82 46L 82 52L 58 52L 64 46L 82 46ZM 106 34L 106 40L 82 40L 88 34L 106 34Z"></path></g></g></g><g id="g-root-cp_2_g-2_dcbq229hn9qe-stroke" data-item-order="-746728" transform="translate(278, 836)"><g id="cp_2_g-2_dcbq229hn9qe-stroke" fill="none" stroke-linecap="round" stroke-linejoin="round" stroke-miterlimit="4" stroke="#4e88e7" stroke-width="2"><g><path d="M 304 16C 304 19.3137 301.3137 22 298 22C 294.6863 22 292 19.3137 292 16C 292 12.6863 294.6863 10 298 10C 301.3137 10 304 12.6863 304 16ZM 292 16L 166 16"></path></g></g><g id="cp_2_g-2_dcbq229hn9qe-stroke" fill="none" stroke-linecap="round" stroke-linejoin="round" stroke-miterlimit="4" stroke="#4e88e7" stroke-width="2"><g><path d="M 10 136L 10 142L 52 142L 52 154L 76 154L 76 166L 100 166L 100 178L 124 178L 124 190L 148 190L 148 202L 166 202L 166 136M 10 88L 10 136M 166 88L 166 136M 10 88L 10 76L 34 76L 34 64L 58 64L 58 52L 82 52L 82 40L 106 40L 106 28L 130 28L 130 16L 166 16L 166 88"></path></g></g></g><g id="g-root-cp_1_stairs-1_8wi7xm9hnaip-stroke" data-item-order="-746696" transform="translate(278, 968)"><g id="cp_1_stairs-1_8wi7xm9hnaip-stroke" fill="none" stroke-linecap="round" stroke-linejoin="round" stroke-miterlimit="4" stroke="#969696" stroke-width="2"><g><path d="M 52 10L 46 16L 10 16L 10 10L 52 10ZM 76 22L 70 28L 46 28L 52 22L 76 22ZM 100 34L 94 40L 70 40L 76 34L 100 34ZM 124 46L 118 52L 94 52L 100 46L 124 46ZM 148 58L 142 64L 118 64L 124 58L 148 58ZM 166 70L 166 76L 142 76L 148 70L 166 70ZM 52 10L 52 22L 46 28L 46 16L 52 10ZM 76 22L 76 34L 70 40L 70 28L 76 22ZM 100 34L 100 46L 94 52L 94 40L 100 34ZM 124 46L 124 58L 118 64L 118 52L 124 46ZM 148 58L 148 70L 142 76L 142 64L 148 58Z"></path></g></g></g><g id="g-root-cp_1_g-1_8wi7xm9hnair-stroke" data-item-order="-746692" transform="translate(140, 968)"><g id="cp_1_g-1_8wi7xm9hnair-stroke" fill="none" stroke-linecap="round" stroke-linejoin="round" stroke-miterlimit="4" stroke="#969696" stroke-width="2"><g><path d="M 22 16C 22 19.3137 19.3137 22 16 22C 12.6863 22 10 19.3137 10 16C 10 12.6863 12.6863 10 16 10C 19.3137 10 22 12.6863 22 16ZM 148 16L 22 16"></path></g></g><g id="cp_1_g-1_8wi7xm9hnair-stroke" fill="none" stroke-linecap="round" stroke-linejoin="round" stroke-miterlimit="4" stroke="#969696" stroke-width="2"><g><path d="M 304 88L 304 76L 280 76L 280 64L 256 64L 256 52L 232 52L 232 40L 208 40L 208 28L 184 28L 184 16L 148 16L 148 88M 148 88L 148 136M 304 88L 304 136M 148 136L 148 160L 304 160L 304 136"></path></g></g></g><g id="g-root-tx_stimmend_3zl4a9hopvp-stroke" data-item-order="0" transform="translate(110, 482)"></g><g id="g-root-ic_arro_1q87ooa9hq2gy-stroke" data-item-order="0" transform="translate(482, 518)"><g id="ic_arro_1q87ooa9hq2gy-stroke" fill="none" stroke-linecap="round" stroke-linejoin="round" stroke-miterlimit="4" stroke="#92bd39" stroke-width="2"><g><path d="M 29.5 15.5C 29.5 17.985281 31.514719 20 34 20C 36.485283 20 38.5 17.985281 38.5 15.5C 38.5 13.014719 36.485283 11 34 11C 31.514719 11 29.5 13.014719 29.5 15.5M 43 29C 41.933315 24.902742 38.233833 22.043076 34 22.043076C 29.766167 22.043076 26.066687 24.902742 25 29ZM 15.5 43.5C 15.5 45.985283 17.514719 48 20 48C 22.485281 48 24.5 45.985283 24.5 43.5C 24.5 41.014717 22.485281 39 20 39C 17.514719 39 15.5 41.014717 15.5 43.5M 29 57C 27.933313 52.902744 24.233833 50.043076 20 50.043076C 15.766167 50.043076 12.066687 52.902744 11 57ZM 43.5 43.5C 43.5 45.985283 45.514717 48 48 48C 50.485283 48 52.5 45.985283 52.5 43.5C 52.5 41.014717 50.485283 39 48 39C 45.514717 39 43.5 41.014717 43.5 43.5M 57 57C 55.933315 52.902744 52.233833 50.043076 48 50.043076C 43.766167 50.043076 40.066689 52.902744 39 57ZM 40 47.84C 36.151478 49.396805 31.848522 49.396805 28 47.84M 43 19.779999C 47.96957 23.158754 50.62685 29.037214 49.880001 35M 25 19.779999C 20.03043 23.158754 17.37315 29.037214 18.119999 35"></path></g></g></g><g id="g-root-tx_lehrerdi_1lu9lt69hoo3q-stroke" data-item-order="0" transform="translate(62, 542)"></g><g id="g-root-tx_stratege_me7h629hnair-stroke" data-item-order="0" transform="translate(482, 410)"></g><g id="g-root-tx_kreisder_qu0zai9hn9qi-stroke" data-item-order="0" transform="translate(482, 374)"></g><g id="g-root-tx_sulendes_4hxnze9hq48w-stroke" data-item-order="0" transform="translate(482, 614)"></g><g id="g-root-ic_stai_qn5rca9hrg92-stroke" data-item-order="0" transform="translate(182, 674)"><g id="ic_stai_qn5rca9hrg92-stroke" fill="none" stroke-linecap="round" stroke-linejoin="round" stroke-miterlimit="4" stroke="#3cc583" stroke-width="2"><g><path d="M 45.099998 31.299999C 48.099998 34.5 48.099998 39.299999 46.099998 42.700001C 44.299999 43.099998 42.5 41.099998 42.299999 39.700001C 39.900002 40.700001 38.099998 43.900002 38.099998 47.299999C 38.099998 52.299999 42.099998 56.5 47.299999 56.5C 52.299999 56.5 56.299999 52.5 56.5 47.299999C 56.700001 38.299999 51.5 33.5 45.099998 31.299999ZM 26.304001 22.344C 29.267561 22.344002 31.67 19.941561 31.67 16.978001C 31.67 14.014441 29.267561 11.612 26.304001 11.612C 23.340441 11.612 20.938 14.014441 20.938 16.978001C 20.938 19.941561 23.340441 22.344002 26.304001 22.344002ZM 28.468 44.25L 16.68 40.540001C 14.714001 39.884003 12.532 40.975998 11.876 43.16C 11.222 45.124001 12.312 47.307999 14.496 47.962002L 26.285999 51.674C 28.25 52.327999 30.434 51.237999 31.087999 49.054001C 31.524 47.088001 30.434 44.905998 28.468 44.25ZM 16.468 40.510002L 16.468 34.788002C 16.468 29.422001 20.939999 24.950001 26.306 24.950001C 31.67 24.950001 36.141998 29.422001 36.141998 34.788002L 36.141998 39.966M 21.834 37.112L 21.834 42.16M 30.775999 37.112L 30.775999 41.209999"></path></g></g></g><g id="g-root-tx_lokalefh_1uo16sq9hq1op-stroke" data-item-order="0" transform="translate(482, 674)"></g><g id="g-root-ic_para_1cymlka9hoowf-stroke" data-item-order="0" transform="translate(182, 386)"><g id="ic_para_1cymlka9hoowf-stroke" fill="none" stroke-linecap="round" stroke-linejoin="round" stroke-miterlimit="4" stroke="#e0cb15" stroke-width="2"><g><path d="M 34 25.500061C 24.999939 25.500061 20.199959 28.500059 20.199959 28.500059L 20.199959 14.50006C 20.199959 14.50006 24.19994 11.500062 34 11.500062M 34 25.500061C 43 25.500061 47.799999 28.500059 47.799999 28.500059L 47.799999 14.50006C 47.799999 14.50006 43.799999 11.500062 34 11.500062M 11.5 17.09992C 11.5 17.09992 13.1 16.09992 13.9 16.09992L 13.9 30.1C 13.9 30.1 12.3 30.1 11.5 31.1M 56.499802 17.09992C 56.499802 17.09992 54.899799 16.09992 54.0998 16.09992L 54.0998 30.1C 54.0998 30.1 55.699799 30.1 56.499802 31.1M 25.000019 56.421398C 16.80002 53.0214 12.600019 46.621399 12.40002 46.221401C 11.400023 44.621399 12.00002 42.421398 13.600019 41.421402C 15.20002 40.421402 17.400021 41.0214 18.400021 42.621399C 18.600021 42.8214 24.000019 51.0214 34 51.421398C 44 51.0214 49.400002 42.8214 49.599998 42.621399C 50.599998 41.0214 52.799999 40.421402 54.400002 41.421402C 56 42.421398 56.599998 44.621399 55.599998 46.221401C 55.400002 46.621399 51.200001 53.0214 43 56.421398M 34 45.0214C 37.865997 45.0214 41 41.887398 41 38.0214C 41 34.155399 37.865997 31.0214 34 31.0214C 30.134001 31.0214 27 34.155399 27 38.0214C 27 41.887398 30.134001 45.0214 34 45.0214Z"></path></g></g></g><g id="g-root-tx_gttliche_1q6yqi29hn9j4-stroke" data-item-order="0" transform="translate(86, 302)"></g><g id="g-root-tx_feuertrg_18nsw4q9hq2h8-stroke" data-item-order="0" transform="translate(110, 770)"></g><g id="g-root-ic_1_1d1qyzu9hrguh-stroke" data-item-order="0" transform="translate(482, 782)"><g id="ic_1_1d1qyzu9hrguh-stroke" fill="none" stroke-linecap="round" stroke-linejoin="round" stroke-miterlimit="4" stroke="#4e88e7" stroke-width="2"><g><path d="M 27.91 38.784C 27.909092 41.997833 30.514164 44.603642 33.727997 44.603642C 36.941833 44.603642 39.546906 41.997833 39.545998 38.783997C 39.546906 35.570164 36.941833 32.964355 33.727997 32.964355C 30.514164 32.964355 27.909092 35.570164 27.909998 38.783997M 42.453999 56.966C 42.501678 53.816654 40.848831 50.885918 38.129086 49.297321C 35.40934 47.708725 32.044655 47.708725 29.324913 49.297321C 26.605169 50.885918 24.95232 53.816654 25 56.966M 45 42.765999C 45.000004 45.196056 46.969948 47.166 49.400002 47.166C 51.830055 47.166 53.800003 45.196056 53.800003 42.766003C 53.800003 40.335949 51.830055 38.366001 49.400002 38.366001C 46.969948 38.366001 45.000004 40.335949 45.000004 42.766003M 56 55.966C 56.00066 53.530556 54.660049 51.292671 52.512413 50.144169C 50.36478 48.995667 47.759186 49.123222 45.734001 50.476002M 14.2 42.765999C 14.200001 45.196056 16.169949 47.166 18.6 47.166C 21.030052 47.166 23 45.196056 23 42.766003C 23 40.335949 21.030052 38.366001 18.6 38.366001C 16.169949 38.366001 14.200001 40.335949 14.200001 42.766003M 12 55.966C 11.999339 53.530556 13.339952 51.292671 15.487587 50.144169C 17.635221 48.995667 20.240814 49.123222 22.265999 50.476002M 34.498001 11.644L 36.678001 16.34L 40.917999 16.34C 41.356129 16.32304 41.757835 16.582684 41.922295 16.98913C 42.086758 17.395576 41.978642 17.861509 41.652 18.153999L 37.970001 21.778L 40.010002 26.462C 40.194092 26.901949 40.07658 27.410318 39.71809 27.724846C 39.359596 28.039375 38.840263 28.089758 38.428001 27.85L 33.498001 25.077999L 28.57 27.85C 28.157513 28.088459 27.638947 28.037638 27.280602 27.723635C 26.922258 27.40963 26.803776 26.902229 26.986 26.462L 29.025999 21.778L 25.346001 18.153999C 25.017908 17.863163 24.907936 17.397545 25.071232 16.990648C 25.234529 16.583752 25.635876 16.323338 26.073999 16.34L 30.316 16.34L 32.498001 11.644C 32.691444 11.27025 33.07716 11.035567 33.498001 11.035567C 33.918846 11.035567 34.304562 11.27025 34.498001 11.644Z"></path></g></g></g><g id="g-root-tx_mentoren_vccdre9hq425-stroke" data-item-order="0" transform="translate(50, 806)"></g><g id="g-root-ic_circ_dikgx69hnbbg-stroke" data-item-order="0" transform="translate(482, 278)"><g id="ic_circ_dikgx69hnbbg-stroke" fill="none" stroke-linecap="round" stroke-linejoin="round" stroke-miterlimit="4" stroke="#de8431" stroke-width="2"><g><path d="M 48.855999 20.304001C 49.098557 20.194883 49.38382 20.254917 49.561817 20.452545C 49.739819 20.650169 49.769798 20.940136 49.636002 21.17C 48.845592 23.315983 49.32798 25.724052 50.883999 27.4C 51.27042 26.540733 51.828529 25.769592 52.524002 25.133999C 52.599617 25.133797 52.674007 25.153084 52.739998 25.189999C 54.181358 26.007408 55.099197 27.510424 55.167999 29.166C 55.216602 32.539356 52.521358 35.3134 49.148003 35.362C 45.774647 35.410603 43.000603 32.715355 42.952 29.342001C 42.952 29.284 42.952 29.224001 42.952 29.166C 43.0378 25.317928 45.33791 21.865427 48.855999 20.304001ZM 32.599998 28.247999C 32.066437 31.005598 29.497972 32.886173 26.708 32.561996C 23.86496 32.86488 21.271465 30.918449 20.768 28.104M 33.042 40.728001C 32.615997 49.638 27.030001 57 18.108 57L 18.108 57L 20.576 38.650002L 19.512001 29.076M 26.728001 43.220001C 25.234447 46.719158 22.436689 49.498978 18.927999 50.970001M 19.788 44.506001C 19.342442 46.160896 17.773151 47.257122 16.066 47.105999L 16.066 47.105999C 15.221807 46.977711 14.474522 46.490162 14.017011 45.769188C 13.5595 45.048218 13.436588 44.164455 13.68 43.346001L 16.719999 33.054001C 18.503063 28.632692 22.98768 25.916348 27.732 26.384001C 32.315674 26.915602 36.06419 30.283253 37.082001 34.784C 37.538025 36.601852 38.860859 38.078068 40.618 38.73L 45.436001 40.548C 46.447575 41.021088 47.007439 42.121853 46.794003 43.218002L 46.793999 43.217999C 46.566063 44.655819 45.259178 45.668388 43.810001 45.530003L 42.950001 45.362C 39.120003 44.612 35.062 43.664001 33.042 40.720001L 35.242001 56.973999M 12.872 29.216C 12.86 29.082001 12.832 28.955999 12.832 28.816C 12.83569 26.839764 14.056138 25.069916 15.902 24.364C 14.672627 23.527384 14.032793 22.059246 14.256887 20.58919C 14.480982 19.119133 15.529192 17.908319 16.952 17.476C 17.382641 13.789392 20.502333 11.007359 24.214001 11L 25.316 11C 31.205999 11 32.812 14.696 32.812 17.341999C 32.72728 20.650101 30.021187 23.287777 26.712 23.287777C 23.402813 23.287777 20.696722 20.650101 20.612 17.341999C 20.612 17.341999 25.944 18.25 27.318001 15.292"></path></g></g></g><g id="g-root-tx_lichttrg_1ums8mi9hn8qv-stroke" data-item-order="0" transform="translate(122, 266)"></g><g id="g-root-tx_aufstreb_1qcl0a29hrifb-stroke" data-item-order="0" transform="translate(482, 878)"></g><g id="g-root-ic_spac_1uonnvu9hsxsc-stroke" data-item-order="0" transform="translate(182, 914)"><g id="ic_spac_1uonnvu9hsxsc-stroke" fill="none" stroke-linecap="round" stroke-linejoin="round" stroke-miterlimit="4" stroke="#969696" stroke-width="2"><g><path d="M 28.959999 22.98C 28.960001 25.741425 31.198576 27.98 33.959999 27.98C 36.721424 27.98 38.959999 25.741425 38.959999 22.98C 38.959999 20.218576 36.721424 17.98 33.959999 17.98C 31.198576 17.98 28.960001 20.218576 28.960001 22.98M 20 29L 20 25C 20 17.268013 26.268015 11.000001 34 11.000001C 41.731987 11.000001 48 17.268013 48 25L 48 29M 30.58 32.98C 28.982307 32.976086 27.449036 33.60955 26.32 34.740002L 25.66 35.400002C 25.274809 35.826363 24.712559 36.048302 24.139999 36C 23.595394 35.946144 23.096645 35.671471 22.76 35.239998L 21.560001 33.739998C 21.121881 33.156803 20.401005 32.858376 19.678867 32.961258C 18.95673 33.06414 18.347872 33.552002 18.09005 34.234348C 17.832226 34.916695 17.966333 35.685287 18.439999 36.239998L 19.639999 37.739998C 20.686966 39.101799 22.283709 39.92947 24 40C 25.91116 40.069904 27.750607 39.267906 29.000002 37.82L 29 41.18C 29.000664 42.360966 28.652803 43.515865 28 44.5L 25.459999 48.32C 25.372089 48.453495 25.372089 48.626507 25.459999 48.760002C 25.529606 48.906742 25.677582 49.000202 25.84 49L 28 49L 28 50.759998C 27.999035 51.167816 27.873421 51.56559 27.639999 51.900002L 26.26 53.900002C 25.814571 54.49221 25.733093 55.282166 26.048264 55.952827C 26.363436 56.623489 27.023592 57.064919 27.76379 57.099957C 28.503988 57.134995 29.202888 56.757893 29.58 56.119999L 31.58 53.119999C 31.830978 52.798256 31.977533 52.407436 32 52L 32 48.98L 36 48.98L 36 52C 36.003059 52.392067 36.121296 52.774586 36.34 53.099998L 38.34 56.099998C 38.71711 56.737892 39.416012 57.114994 40.156212 57.079956C 40.896408 57.044918 41.556564 56.603489 41.871735 55.932827C 42.186909 55.262165 42.105427 54.47221 41.66 53.880001L 40.34 51.880001C 40.117516 51.548923 39.999107 51.158886 40 50.759998L 40 49L 42 49C 42.190517 49.006859 42.365524 48.895493 42.439999 48.720001C 42.538486 48.567883 42.538486 48.372116 42.439999 48.220001L 40 44.5C 39.352539 43.513363 39.005173 42.360096 39 41.18L 39 37.799999C 40.226833 39.280312 42.079762 40.0956 44 40C 45.705963 39.908119 47.291855 39.093346 48.360001 37.760002L 49.560001 36.260002C 50.033669 35.705288 50.167774 34.936691 49.90995 34.254349C 49.65213 33.572006 49.04327 33.084137 48.321133 32.981258C 47.598995 32.87838 46.87812 33.176804 46.439999 33.760002L 45.240002 35.260002C 44.877026 35.701447 44.349808 35.975891 43.779999 36.019997C 43.211014 36.045555 42.658119 35.827309 42.259998 35.419998L 41.580002 34.760002C 40.455864 33.63446 38.930763 33.001404 37.34 33Z"></path></g></g></g><g id="g-root-tx_diszipli_1lwri5m9hrj7k-stroke" data-item-order="0" transform="translate(482, 938)"></g><g id="g-root-ic_aura_1hbbq969hnabt-stroke" data-item-order="0" transform="translate(182, 170)"><g id="ic_aura_1hbbq969hnabt-stroke" fill="none" stroke-linecap="round" stroke-linejoin="round" stroke-miterlimit="4" stroke="#e55753" stroke-width="2"><g><path d="M 46.400002 57C 45.543743 50.808014 40.250912 46.196735 34 46.196735C 27.74909 46.196735 22.456259 50.808014 21.6 57M 26.764 35.812C 26.763651 39.808578 30.00342 43.048634 34 43.048634C 37.996582 43.048634 41.236351 39.808578 41.236 35.812C 41.236351 31.81542 37.996582 28.575369 34 28.575369C 30.00342 28.575369 26.763651 31.81542 26.764 35.812M 34 11L 34 16.17M 39.349998 15.304L 38.945999 16.854M 51.875999 17.906L 47.742001 22.082001M 56.743999 29.983999L 52.689999 31.028M 28.65 15.304L 29.054001 16.854M 16.124001 17.906L 20.257999 22.082001M 11.256001 29.983999L 15.309999 31.028M 56.743999 41.639999L 52.689999 40.596001M 11.256001 41.639999L 15.309999 40.596001M 22.628 15.874001L 24.178001 18.799999M 12.512 23.406L 16.987999 25.99M 11.256001 35.812L 14.358 35.812M 12.512 48.217999L 16.987999 45.633999M 45.666 15.32L 43.821999 18.799999M 54.717999 23.85L 51.012001 25.99M 56.743999 35.812L 53.641998 35.812M 55.487999 48.217999L 51.012001 45.633999M 22.09 42.68C 21.406368 41.533894 20.893635 40.294167 20.568001 39M 20.166 35.237999C 20.199512 33.904755 20.424479 32.583241 20.834 31.314001M 22.484001 27.908001C 23.240772 26.810059 24.13769 25.815651 25.152 24.950001M 28.370001 22.956001C 29.587238 22.412914 30.877701 22.05172 32.200001 21.884001M 35.986 21.911999C 37.307106 22.092754 38.593102 22.473091 39.799999 23.040001M 43 25.077999C 44.012554 25.949032 44.896664 26.959059 45.625999 28.078001M 47.231998 31.493999C 47.609909 32.772995 47.81572 34.096642 47.844002 35.43M 47.383999 39.186001C 47.041355 40.475525 46.511738 41.707932 45.812 42.843998"></path></g></g></g><g id="g-root-tx_reisezur_v7oq9hnbbi-stroke" data-item-order="0" transform="translate(230, 38)"></g><g id="g-root-tx_ungeform_4j6m5m9hsx6r-stroke" data-item-order="0" transform="translate(62, 1046)"></g><g id="g-root-tx_suchende_hun4iy9hsvlu-stroke" data-item-order="0" transform="translate(134, 1010)"></g></g></g></svg>